<?xml version="1.0" standalone="no"?><svg xmlns="http://www.w3.org/2000/svg" viewBox="0 0 1440 320"><path fill="#f3f4f5" fill-opacity="1" d="M0,96L34.3,101.3C68.6,107,137,117,206,101.3C274.3,85,343,43,411,64C480,85,549,171,617,192C685.7,213,754,171,823,133.3C891.4,96,960,64,1029,80C1097.1,96,1166,160,1234,208C1302.9,256,1371,288,1406,304L1440,320L1440,0L1405.7,0C1371.4,0,1303,0,1234,0C1165.7,0,1097,0,1029,0C960,0,891,0,823,0C754.3,0,686,0,617,0C548.6,0,480,0,411,0C342.9,0,274,0,206,0C137.1,0,69,0,34,0L0,0Z"></path></svg>