<?xml version="1.0" standalone="no"?><svg xmlns="http://www.w3.org/2000/svg" viewBox="0 0 1440 320"><path fill="#8f17a8" fill-opacity="1" d="M0,32L30,53.3C60,75,120,117,180,160C240,203,300,245,360,266.7C420,288,480,288,540,240C600,192,660,96,720,96C780,96,840,192,900,224C960,256,1020,224,1080,181.3C1140,139,1200,85,1260,90.7C1320,96,1380,160,1410,192L1440,224L1440,0L1410,0C1380,0,1320,0,1260,0C1200,0,1140,0,1080,0C1020,0,960,0,900,0C840,0,780,0,720,0C660,0,600,0,540,0C480,0,420,0,360,0C300,0,240,0,180,0C120,0,60,0,30,0L0,0Z"></path></svg>