<?xml version="1.0" standalone="no"?><svg xmlns="http://www.w3.org/2000/svg" viewBox="0 0 1440 320"><path fill="#5f1782" fill-opacity="1" d="M0,32L34.3,64C68.6,96,137,160,206,154.7C274.3,149,343,75,411,74.7C480,75,549,149,617,160C685.7,171,754,117,823,85.3C891.4,53,960,43,1029,42.7C1097.1,43,1166,53,1234,90.7C1302.9,128,1371,192,1406,224L1440,256L1440,0L1405.7,0C1371.4,0,1303,0,1234,0C1165.7,0,1097,0,1029,0C960,0,891,0,823,0C754.3,0,686,0,617,0C548.6,0,480,0,411,0C342.9,0,274,0,206,0C137.1,0,69,0,34,0L0,0Z"></path></svg>