<?xml version="1.0" standalone="no"?><svg xmlns="http://www.w3.org/2000/svg" viewBox="0 0 1440 320"><path fill="#f3f4f5" fill-opacity="1" d="M0,64L30,74.7C60,85,120,107,180,128C240,149,300,171,360,176C420,181,480,171,540,149.3C600,128,660,96,720,85.3C780,75,840,85,900,117.3C960,149,1020,203,1080,213.3C1140,224,1200,192,1260,176C1320,160,1380,160,1410,160L1440,160L1440,0L1410,0C1380,0,1320,0,1260,0C1200,0,1140,0,1080,0C1020,0,960,0,900,0C840,0,780,0,720,0C660,0,600,0,540,0C480,0,420,0,360,0C300,0,240,0,180,0C120,0,60,0,30,0L0,0Z"></path></svg>